# xmcd
#
# Track frame offsets: 
#        150
#        12925
#        22750
#        33425
#        46987
#        56810
#        62062
#        97265
#        104710
#        114950
#        125072
#        142302
#        158247
#        161572
#        169745
#        181445
#        188425
#        191685
#        212250
#        220459
#        244785
#        248509
#        251370
#        253502
#        275140
#
# Disc length: 3869 seconds
#
# Revision: 5
# Processed by: cddbd v1.5.2PL0 Copyright (c) Steve Scherf et al.
# Submitted via: ExactAudioCopy v0.99pb5
#
DISCID=6c0f1b19
DTITLE=Zita Swoon - Music Inspired By Sunrise, A Film By F.W. Murnau
DYEAR=1997
DGENRE=Soundtrack
TTITLE0=Titles: A Song Of Two Humans
TTITLE1=Woman Of The City
TTITLE2=The Waiting
TTITLE3=Meeting By The Swamp
TTITLE4=Come To The City
TTITLE5=The Skeem
TTITLE6=Couldn't She Get Drowned?
TTITLE7=Trip To The City
TTITLE8=The City
TTITLE9=Where's My Love?
TTITLE10=At The Barbers'
TTITLE11=At The Photographers'
TTITLE12=Casino Swing
TTITLE13=Pig Chase
TTITLE14=Peasant Dance
TTITLE15=3 Angels Song
TTITLE16=A New Moon
TTITLE17=The Storm
TTITLE18=The Gathering Of The Man
TTITLE19=The Search
TTITLE20=The Return
TTITLE21=Sunrise
TTITLE22=Coda - A Song Of Two Humans
TTITLE23=Giving Up The Hero
TTITLE24=Couldn't She Get Drowned (Single Version)
EXTD=
EXTT0=
EXTT1=
EXTT2=
EXTT3=
EXTT4=
EXTT5=
EXTT6=
EXTT7=
EXTT8=
EXTT9=
EXTT10=
EXTT11=
EXTT12=
EXTT13=
EXTT14=
EXTT15=
EXTT16=
EXTT17=
EXTT18=
EXTT19=
EXTT20=
EXTT21=
EXTT22=
EXTT23=
EXTT24=
PLAYORDER=
